<svg
    width="250"
    height="230"
    viewBox="0 50 433 483"
    fill="none"
    xmlns="http://www.w3.org/2000/svg"
  >
    <path
      fillRule="evenodd"
      clipRule="evenodd"
      d="M219.21 412.607C199.985 422.239 177.447 423.024 156.12 420.281C114.832 414.97 73.1374 394.954 52.6079 358.741C43.7527 343.12 39.2803 325.408 36.1644 307.724C32.003 284.107 30.322 258.718 40.7791 237.138C49.5946 218.945 65.9544 205.706 82.2536 193.747C99.3361 181.213 117.841 169.026 138.88 166.521C199.571 165.319 193.423 188.118 256.806 151.858C275.231 141.316 330.013 159.411 348.522 165.319C367.031 171.228 403.556 189.456 428.326 211.11C438.679 220.162 448.229 230.52 454.048 242.981C462.761 261.638 462.338 283.371 458.273 303.557C454.173 323.917 445.271 345.094 427.189 355.311C419.02 359.928 409.6 361.908 400.248 362.666C361.189 365.83 319.64 349.154 283.896 365.217C259.427 376.214 243.195 400.59 219.21 412.607Z"
      fill="#64FCD9"
    />
    <path
      fillRule="evenodd"
      clipRule="evenodd"
      d="M72.7548 245.017C80.0942 237.788 86.9924 230.333 91.6347 223.837C98.025 214.895 107.394 206.392 118.497 204.752C131.444 202.839 143.334 211.765 152.746 220.859C165.748 233.424 177.416 247.367 187.493 262.38C183.451 262.906 174.741 268.935 163.166 268.744C156.353 268.631 148.213 262.559 140.344 262.154C134.879 261.872 128.912 267.593 123.409 267.157C113.786 266.394 104.786 259.309 96.6693 258.028C91.8336 257.264 85.3076 262.071 81.5904 261.107C71.3751 258.457 68.3478 249.358 72.7548 245.017Z"
      fill="white"
    />
    <path
      fillRule="evenodd"
      clipRule="evenodd"
      d="M292.842 357.494C324.563 347.035 358.936 359.156 392.333 358.709C407.13 358.51 422.946 355.245 433.132 344.511C410.822 331.375 393.887 310.485 381.552 287.722C369.217 264.959 361.107 240.195 353.064 215.585C342.48 209.551 328.858 219.756 317.241 216.086C311.305 214.21 304.215 209.116 299.955 213.655C297.384 216.396 292.595 214.784 290.094 211.979C287.592 209.174 286.199 205.446 283.379 202.963C280.558 200.479 275.205 200.166 273.77 203.639C271.286 209.651 268.667 215.861 263.903 220.292C259.14 224.722 251.588 226.86 246.008 223.515C241.65 220.902 239.593 215.818 237.054 211.415C234.516 207.013 233.526 203.056 228.478 203.639C211.426 239.565 198.696 274.883 177.719 308.667C168.705 323.185 118.272 378.527 88.967 371.395C59.6623 364.262 61.8365 358.709 51.9403 349.938C62.2489 370.911 80.4595 387.412 101.252 398.078C122.045 408.743 145.334 413.872 168.63 415.724C177.822 416.455 187.145 416.685 196.193 414.907C233.274 407.619 256.952 369.327 292.842 357.494Z"
      fill="white"
    />
    <path
      fillRule="evenodd"
      clipRule="evenodd"
      d="M261.042 217.367C264.292 213.169 266.322 208.118 269.67 203.998C273.018 199.878 278.455 196.685 283.519 198.276C288.232 199.757 290.825 204.674 292.927 209.145C293.982 211.39 297.189 211.564 299.501 210.664C301.812 209.764 303.89 208.136 306.356 207.867C311.458 207.31 315.3 212.595 320.286 213.812C327.705 215.623 335.163 208.052 342.495 210.188C345.598 211.093 348.284 213.687 351.508 213.465C345.307 198.601 340.636 183.122 334.125 168.39C327.615 153.658 319.028 139.44 306.528 129.283C305.243 128.239 303.837 127.205 302.194 126.995C300.551 126.786 298.648 127.719 298.36 129.349C297.504 134.198 296.649 139.046 295.793 143.895C295.369 146.295 294.25 149.309 291.813 149.263C290.19 149.233 288.943 147.641 288.719 146.032C288.495 144.423 289.035 142.817 289.566 141.283C291.23 136.474 292.895 131.665 294.559 126.857C283.14 130.977 273.241 138.626 265.036 147.574C256.831 156.521 250.195 166.776 243.835 177.117C238.389 185.971 233.114 194.929 228.012 203.986C234.853 203.015 240.812 208.632 244.682 214.356C246.998 217.78 249.756 221.86 253.89 221.845C256.805 221.834 259.258 219.672 261.042 217.367Z"
      fill="white"
    />
    <path
      fillRule="evenodd"
      clipRule="evenodd"
      d="M305.287 113.886C304.53 113.643 303.735 113.366 303.219 112.761C302.477 111.889 302.526 110.616 302.616 109.475C303.499 98.1982 304.382 86.9217 305.265 75.6452C305.367 74.3385 306.649 73.3751 307.945 73.1822C309.242 72.9892 310.546 73.3818 311.798 73.7698C319.873 76.2728 327.948 78.7757 336.024 81.2786C337.995 81.8895 338.1 84.6252 337.685 86.6464C337.269 88.6676 336.958 91.2629 338.722 92.3326C350.5 99.4724 363.014 105.395 376.002 109.976C376.841 110.272 376.903 111.549 376.317 112.219C375.731 112.889 374.795 113.105 373.924 113.291C360.737 116.104 347.834 120.243 335.471 125.625C333.741 126.378 331.483 127.066 330.177 125.704C329.248 124.735 329.337 123.221 329.259 121.881C329.18 120.541 328.589 118.936 327.257 118.767C319.805 117.82 312.44 116.184 305.287 113.886ZM332.954 91.0136C334.76 88.1528 333.472 83.8285 330.395 82.4222C323.097 79.087 315.437 76.5429 307.594 74.8489C308.898 76.86 308.828 79.4326 308.713 81.8265C308.272 91.019 307.818 100.296 305.418 109.181C305.21 109.949 306.198 110.449 306.975 110.622C313.931 112.178 320.939 113.5 327.984 114.586C327.403 107.797 326.823 101.007 326.243 94.2177C326.178 93.4631 326.119 92.6749 326.406 91.9742C326.872 90.8389 328.165 90.2219 329.391 90.187C330.618 90.1522 331.803 90.586 332.954 91.0136ZM331.441 96.3651C331.995 104.331 332.549 112.298 333.103 120.264C333.152 120.962 333.234 121.733 333.75 122.206C344.979 117.545 356.612 113.857 368.476 111.196C355.62 107.505 344.775 97.4077 331.441 96.3651Z"
      fill="#FFB61D"
    />
    <path
      fillRule="evenodd"
      clipRule="evenodd"
      d="M219.21 412.607C199.985 422.239 177.447 423.024 156.12 420.281C114.832 414.97 73.1373 394.954 52.6079 358.741C43.7527 343.12 39.2803 325.408 36.1643 307.724C34.4549 298.023 31.135 283.492 37.214 276.897C38.5723 275.424 76.7298 244.695 91.6347 223.837C98.025 214.895 107.394 206.392 118.497 204.752C131.444 202.839 143.334 211.765 152.746 220.859C165.748 233.424 177.416 247.367 187.493 262.38C176.389 257.663 168.397 247.859 161.021 238.312C153.646 228.765 146.024 218.775 135.226 213.395C124.428 208.015 109.433 208.911 102.42 218.727C85.7042 242.125 64.5597 262.346 40.44 278.001C38.6259 279.179 38.4619 281.725 38.4958 283.887C38.8879 308.849 41.6787 337.276 61.6477 352.258C78.3265 364.772 102.538 363.14 120.808 353.09C139.078 343.041 152.44 326.044 163.911 308.631C197.561 257.554 219.41 199.171 255.578 149.845C263.892 138.505 273.687 127.166 287.083 122.891C296.021 120.039 298.527 108.633 298.362 99.2525C298.198 89.8717 297.311 79.2062 303.824 72.4534C302.451 88.0532 301.078 103.653 299.706 119.253C319.712 129.186 331.397 150.334 339.973 170.958C352.708 201.584 361.353 233.821 374.76 264.159C388.167 294.497 407.198 323.648 435.33 341.22C448.352 324.267 455.777 297.128 455.777 281.618C448.352 273.525 437.803 260.864 425.462 255.163C410.751 248.367 394.612 260.282 382.794 271.37C389.325 261.428 397.166 250.962 408.724 248.147C418.054 245.874 428.039 249.264 435.78 254.947C443.521 260.629 449.423 268.407 455.21 276.07C461.061 278.001 462.338 283.371 458.273 303.557C454.173 323.917 445.271 345.094 427.189 355.311C419.02 359.928 409.6 361.908 400.248 362.665C361.189 365.83 319.64 349.154 283.896 365.217C259.427 376.214 243.195 400.59 219.21 412.607ZM292.842 357.494C324.563 347.035 358.936 359.156 392.333 358.709C407.13 358.51 422.946 355.245 433.133 344.511C410.822 331.375 393.887 310.485 381.552 287.722C369.217 264.959 361.107 240.195 353.064 215.585C342.48 209.551 328.858 219.756 317.241 216.086C311.305 214.21 304.215 209.116 299.955 213.655C297.384 216.396 292.595 214.784 290.094 211.979C287.592 209.174 286.199 205.446 283.379 202.963C280.558 200.479 275.205 200.166 273.77 203.639C271.286 209.651 268.667 215.861 263.903 220.292C259.14 224.722 251.588 226.86 246.008 223.515C241.65 220.902 239.593 215.818 237.055 211.415C234.516 207.013 230.311 202.612 225.263 203.196C208.212 239.122 189.137 274.088 168.161 307.873C159.147 322.391 149.606 336.895 136.696 348.09C123.786 359.286 106.926 366.944 89.909 365.387C76.1766 364.13 63.7026 357.136 51.9403 349.938C62.2489 370.911 80.4595 387.412 101.252 398.077C122.045 408.743 145.334 413.872 168.63 415.724C177.822 416.455 187.145 416.685 196.193 414.907C233.274 407.619 256.952 369.327 292.842 357.494ZM260.383 214.732C263.633 210.534 265.663 205.484 269.011 201.364C272.359 197.244 277.796 194.05 282.861 195.641C287.574 197.122 290.167 202.04 292.268 206.511C293.323 208.756 296.531 208.929 298.842 208.029C301.153 207.129 303.231 205.502 305.697 205.232C310.799 204.676 314.642 209.961 319.627 211.178C327.047 212.989 334.505 205.417 341.837 207.554C344.939 208.458 347.625 211.052 350.85 210.83C344.648 195.966 340.011 181.329 333.501 166.598C326.99 151.866 312.848 125.813 301.535 124.36C290.094 122.891 272.583 135.991 264.378 144.939C256.172 153.887 249.537 164.141 243.176 174.482C237.731 183.336 232.455 192.295 227.354 201.351C234.195 200.38 240.153 205.997 244.024 211.721C246.339 215.146 249.097 219.226 253.231 219.21C256.146 219.2 258.599 217.037 260.383 214.732Z"
      fill="#00160A"
    />
    <path
      fillRule="evenodd"
      clipRule="evenodd"
      d="M209.957 95.2667C202.77 95.996 196.908 102.306 193.947 110.845C193.177 113.065 190.65 114.09 186.216 114.517L185.937 114.543C176.121 115.418 169.604 117.947 166.462 123.726L166.331 123.973C166.075 124.465 165.856 124.956 165.536 125.731L165.33 126.237C164.588 128.059 164.209 128.83 163.574 129.632C161.598 132.13 158.624 132.899 152.674 133.078L152.012 133.095C137.755 133.413 127.683 135.579 119.524 141.277C117.19 142.907 115.801 144.525 115.489 146.599C115.133 148.976 116.514 151.436 118.718 152.788C120.482 153.869 122.598 154.296 125.24 154.304C128.455 154.313 131.67 153.753 134.693 152.658L134.944 152.566C135.399 152.397 135.831 152.225 136.473 151.959L137.832 151.392C140.619 150.239 141.972 149.83 143.668 149.741C146.284 149.604 148.349 150.294 152.746 152.443L153.671 152.897C154.628 153.365 155.319 153.692 155.996 153.988L156.181 154.069C163.557 157.255 171.099 157.788 183.348 156.854L185.765 156.659L191.118 156.206C192.523 156.092 193.529 156.019 194.688 155.945L195.806 155.879C200.577 155.62 205.67 155.615 213.987 155.781L219.707 155.901C231.172 156.127 236.34 156.066 241.85 155.499C248.252 154.84 252.421 150.37 254.13 143.748C255.515 138.381 255.011 132.119 253.081 129.144C249.227 123.203 243.475 119.624 238.182 121.273C236.428 121.82 234.221 120.532 233.094 118.418C232.483 117.27 232.172 116.234 231.662 113.914L231.415 112.791C231.273 112.156 231.169 111.732 231.037 111.254C229.241 104.757 224.337 99.2083 218.11 96.6276C215.377 95.4953 212.597 94.9988 209.957 95.2667ZM217.353 98.4531C222.923 100.761 227.346 105.699 229.047 111.481L229.132 111.781C229.255 112.224 229.353 112.626 229.49 113.237L229.795 114.624C230.309 116.926 230.655 118.042 231.35 119.347C232.85 122.162 235.861 123.957 238.605 123.208L238.77 123.16C243.016 121.837 247.995 124.935 251.423 130.22C253.016 132.674 253.475 138.38 252.216 143.254C250.696 149.144 247.129 152.969 241.648 153.533L241.034 153.594C235.987 154.08 230.966 154.138 220.613 153.942L213.054 153.787C205.257 153.639 200.338 153.653 195.696 153.906L193.875 154.018C192.575 154.105 191.335 154.202 189.31 154.373L183.729 154.842C171.639 155.795 164.288 155.339 157.273 152.386L156.964 152.255C156.378 152.001 155.792 151.73 155.024 151.358L153.289 150.509C148.806 148.335 146.558 147.611 143.564 147.768C141.517 147.875 139.987 148.352 136.811 149.676L135.407 150.261C134.852 150.489 134.464 150.639 134.019 150.8C131.214 151.817 128.23 152.336 125.246 152.328C122.934 152.321 121.151 151.961 119.751 151.103C118.179 150.14 117.214 148.42 117.444 146.892C117.653 145.494 118.727 144.244 120.656 142.897C128.318 137.546 137.896 135.437 151.503 135.084L152.056 135.071C159.037 134.915 162.57 134.086 165.124 130.858C165.847 129.943 166.273 129.124 166.964 127.457L167.499 126.158C167.77 125.515 167.961 125.106 168.198 124.67C170.848 119.796 176.558 117.469 185.32 116.586L186.112 116.511C191.362 116.043 194.556 114.826 195.749 111.67L195.814 111.493C198.549 103.604 203.876 97.8698 210.157 97.2325C212.348 97.0102 214.693 97.4021 217.034 98.3241L217.353 98.4531Z"
      fill="#00160A"
    />
    <path
      fillRule="evenodd"
      clipRule="evenodd"
      d="M424.119 136.16L423.875 136.404C423.689 136.593 423.506 136.79 423.278 137.042L422.374 138.059C421.512 139.025 421.046 139.485 420.436 139.945C419.108 140.947 417.518 141.257 416.46 140.665C416.034 140.427 415.717 140.114 415.106 139.363L414.651 138.802C414.413 138.515 414.245 138.326 414.038 138.117C411.311 135.369 406.548 135.236 402.923 137.424C400.085 139.136 398.046 141.758 395.814 145.93C394.902 147.635 392.896 148.813 390.51 149.174C389.351 149.349 388.132 149.361 386.573 149.246L385.81 149.182L383.414 148.939C370.803 147.695 357.906 149.477 346.105 154.094C344.243 154.823 343.207 155.476 342.55 156.692C341.602 158.444 342.563 160.988 344.587 161.1C379.18 163.017 413.916 162.362 448.412 159.143L450.601 158.937L452.198 158.828C452.346 158.817 452.469 158.806 452.622 158.793L453.031 158.752C456.179 158.403 457.907 157.359 457.907 154.742C457.907 152.215 456.689 151.524 453.612 151.21L452.996 151.145C451.805 151.015 451.261 150.918 450.526 150.69C447.918 149.882 444.81 148.197 444.132 147.355C443.129 146.11 442.702 144.938 442.092 142.214L441.9 141.353C441.259 138.547 440.749 137.208 439.542 135.707C436.017 131.325 428.496 131.861 424.119 136.16ZM438.002 136.946C439.003 138.19 439.43 139.362 440.039 142.081L440.231 142.944C440.873 145.754 441.383 147.093 442.593 148.595C443.572 149.809 446.991 151.663 449.942 152.578L450.212 152.659C450.918 152.862 451.51 152.966 452.545 153.083L453.907 153.23C455.646 153.436 455.931 153.683 455.931 154.743C455.931 156.031 454.998 156.572 452.646 156.806L452.045 156.858L450.54 156.96C450.468 156.966 450.4 156.971 450.334 156.977L450.139 156.994C415.112 160.361 379.831 161.074 344.696 159.127C344.295 159.105 343.964 158.23 344.288 157.631C344.652 156.957 345.376 156.501 346.825 155.934C358.137 151.509 370.486 149.753 382.584 150.846L384.063 150.992L385.286 151.117C385.572 151.145 385.809 151.167 386.07 151.188C387.934 151.343 389.386 151.342 390.805 151.127C393.759 150.681 396.317 149.178 397.556 146.863C399.635 142.978 401.484 140.6 403.943 139.116C406.846 137.364 410.611 137.47 412.635 139.509L412.753 139.631C412.85 139.735 412.948 139.846 413.069 139.99L413.448 140.456C414.296 141.509 414.747 141.971 415.495 142.389C417.335 143.419 419.732 142.953 421.627 141.522C422.322 140.997 422.833 140.502 423.677 139.565L424.731 138.381C425.037 138.043 425.253 137.815 425.504 137.57C429.119 134.019 435.294 133.579 438.002 136.946Z"
      fill="#00160A"
    />
    <path
      fillRule="evenodd"
      clipRule="evenodd"
      d="M298.362 99.2525C298.198 89.8717 297.311 79.2062 303.824 72.4534C302.451 88.0532 301.078 103.653 299.705 119.253C301.935 120.36 298.61 122.211 296.595 122.248C289.377 122.382 298.527 108.633 298.362 99.2525Z"
      fill="#FFB61D"
    />
  </svg>